# xmcd
#
# Track frame offsets: 
#        150
#        22378
#        33535
#        47824
#        60188
#        68807
#        77304
#        90821
#        102756
#        130801
#        142017
#        155340
#        184040
#        201560
#        221205
#        232281
#        243834
#        260954
#        275195
#        303860
#        319715
#
# Disc length: 4524 seconds
#
# Revision: 4
# Processed by: cddbd v1.5.2PL0 Copyright (c) Steve Scherf et al.
# Submitted via: ExactAudioCopy v0.99pb5
#
DISCID=3411aa15
DTITLE=Various Artist - Rough Trade Shops - Country 1 [CD2)
DYEAR=2003
DGENRE=Alt. Country
TTITLE0=Golden Smog - Until You Came Along
TTITLE1=Rockingbirds - Drifting
TTITLE2=X - Riding With Mary
TTITLE3=True West - Ain't No Hangman
TTITLE4=Chickasaw Mudd Puppies - Night Time (Ain't Got No Eyes)
TTITLE5=Uncle Tupelo - Satan Your Kingdom Must Come Down
TTITLE6=The Mekons - Lost Highway
TTITLE7=Whiskeytown - Houses On The Hill
TTITLE8=Steve Earle and The Dukes - Billy Austin
TTITLE9=Tarnation - Lonely Lights
TTITLE10=Original Harmony Ridge Creek Dippers - Give My Heart To You
TTITLE11=Jim White - The Girl From Brownsville Texas
TTITLE12=Camper Van Beethoven - Good Guys And Bad Guys
TTITLE13=Ella Guru - Strugglin' Horse In Hollywood
TTITLE14=Green On Red - Hair Of The Dog
TTITLE15=28th Day - This Train
TTITLE16=Dave Alvin - Border Radio
TTITLE17=Lullaby For The Working Class - Spreading The Evening Sky Wit
TTITLE17=h Crows
TTITLE18=The Gourds - Gin And Juice
TTITLE19=Souled American - Feel Better
TTITLE20=Carla Bozulich (with Willie Nelson) - Can I Sleep In Your Arm
TTITLE20=s?
EXTD=YEAR: 2003 ID3G:   2
EXTT0=
EXTT1=
EXTT2=
EXTT3=
EXTT4=
EXTT5=
EXTT6=
EXTT7=
EXTT8=
EXTT9=
EXTT10=
EXTT11=
EXTT12=
EXTT13=
EXTT14=
EXTT15=
EXTT16=
EXTT17=
EXTT18=
EXTT19=
EXTT20=
PLAYORDER=
